# xmcd CD Database Entry
#
# Track frame offsets:
# 183
# 14903
# 35850
# 53573
# 72680
# 90878
# 105588
# 125365
# 138560
# 185568
# 208680
# 229808
# 255245
# 276188
#
# Disc length: 3952 seconds
#
# Revision: 3
# Processed by: cddbd v1.4b41PL2 Copyright (c) Steve Scherf et al.
# Submitted via: tcd 2.0b
#
DISCID=cd0f6e0e
DTITLE=Uriah Heep - 14 Rock Hard Hits
DYEAR=1900
DGENRE=
TTITLE0=On the rebound
TTITLE1=Chasing schadows
TTITLE2=Hot night in a cold town
TTITLE3=Sweet Lorraine
TTITLE4=Sunrise
TTITLE5=Traveller in time
TTITLE6=Rainbow demon
TTITLE7=The wizard
TTITLE8=July morning
TTITLE9=Look at yourself
TTITLE10=Lady in black
TTITLE11=The park
TTITLE12=Dreammare
TTITLE13=Walking in your shadow
EXTD=
EXTT0=
EXTT1=
EXTT2=
EXTT3=
EXTT4=
EXTT5=
EXTT6=
EXTT7=
EXTT8=
EXTT9=
EXTT10=
EXTT11=
EXTT12=
EXTT13=
PLAYORDER=
